<?xml version="1.0" standalone="no"?><!DOCTYPE svg PUBLIC "-//W3C//DTD SVG 1.1//EN" "http://www.w3.org/Graphics/SVG/1.1/DTD/svg11.dtd"><svg t="1534334075587" class="icon" style="" viewBox="0 0 1024 1024" version="1.1" xmlns="http://www.w3.org/2000/svg" p-id="5321" xmlns:xlink="http://www.w3.org/1999/xlink" width="200" height="200"><defs><style type="text/css"></style></defs><path d="M1024 201.282235L822.245826 0H568.051902l-100.178254 99.851526C218.780303 79.068033 17.933704 219.197788 15.120218 221.212607a18.151523 18.151523 0 1 0 21.09207 29.514376c2.523062-1.797001 176.287588-122.994718 397.173467-116.514624L108.890985 457.654341l0.145212 0.145212L0 566.563477l456.438189 457.436523 182.241288-181.751197c37.42844 19.603644 80.973943 29.242103 124.047506 29.223952 63.548481 0 125.88081-20.656433 165.197007-59.972631 133.722268-133.740419 80.647215-280.441025 62.495693-320.065799l33.562165-33.48956v-256.66253zM807.252668 36.303045l180.444287 180.044954v226.531003L633.052505 796.361754c-74.130819-53.147658-96.693161-152.872124-63.403269-283.635693a18.151523 18.151523 0 0 0-13.105399-22.072252 18.042614 18.042614 0 0 0-22.072252 13.1054c-46.994292 184.546531 16.154855 275.558266 72.587939 318.504768l-41.621441 41.494381L160.386854 457.854008 481.305775 137.770057c76.200092 8.712731 156.665792 33.870741 236.804765 84.713156a70.536817 70.536817 0 0 0-1.234304 12.306733c0 39.388804 32.037438 71.426242 71.426242 71.426241s71.444393-32.037438 71.444393-71.426241S827.691282 163.363704 788.302478 163.363704c-22.072252 0-41.585138 10.273762-54.690538 26.065587-74.221576-46.413443-148.606516-72.279363-219.960151-83.896338L583.04506 36.303045h224.207608z m-48.264899 214.187968a18.097068 18.097068 0 0 0 25.39398-3.630305 18.11522 18.11522 0 0 0-3.630304-25.39398c-5.608821-4.193002-11.235793-7.895912-16.844613-11.834793A34.905378 34.905378 0 0 1 788.302478 199.666749c19.367675 0 35.141348 15.755522 35.141348 35.141348a35.177651 35.177651 0 0 1-35.141348 35.123197 35.177651 35.177651 0 0 1-32.400468-21.600312c1.034637 0.744212 2.069274 1.379516 3.085759 2.160031zM51.332506 566.636083l83.351792-83.133974 405.178289 406.049563-83.351792 83.133973-405.178289-406.049562z m850.925231 219.197788c-46.758322 46.722019-151.928245 68.031907-236.51434 29.423618l297.231184-296.450668c18.060765 44.94317 47.284717 159.007339-60.716844 267.02705z" fill="#ADADAD" p-id="5322"></path></svg>